# xmcd CD database file
#
# Track frame offsets:
#	187
#	19912
#	48750
#	88425
#	139087
#	158887
#
# Disc length: 2358 seconds
#
# Revision: 0
# Processed by: cddbd v1.4PL0 Copyright (c) Steve Scherf et al.
# Submitted via: CDex 1.50Beta7
#
DISCID=4a093406
DTITLE=Roy Haynes-Phineas Newborn-Paul Chambers - We Three
DYEAR=1900
DGENRE=Jazz
TTITLE0=Reflection
TTITLE1=Sugar Ray
TTITLE2=Solitaire
TTITLE3=After Hours
TTITLE4=Sneakin' Around
TTITLE5=Tadd's Delight
EXTD=
EXTT0=
EXTT1=
EXTT2=
EXTT3=
EXTT4=
EXTT5=
PLAYORDER=
